<svg width="840" height="253" viewBox="0 0 840 253" fill="none" xmlns="http://www.w3.org/2000/svg">
<path d="M95.472 43.0008L47 80.9955V102.251H68.2547L68.256 102.25L91.8133 83.8795V218.242L95.264 221.685L95.32 221.739V221.741H118.171H118.172L121.665 218.238V46.5035L118.159 43.0048L95.472 43.0008Z" fill="#F43142"/>
<path d="M733.983 72.796L704.131 42.944V42.9427H605.52L602.077 46.3947L602.021 46.344V46.4494L602.02 46.4507V69.3014L602.021 69.3027L605.524 72.796H691.765L751.283 132.313L691.761 191.835L226.185 191.892V46.5039L222.678 43.0052L199.99 43.0012V42.9999L151.518 80.9946V102.252H172.773L172.774 102.251L196.332 83.8799V218.241L199.782 221.684L199.838 221.74L199.84 221.741L704.131 221.684L793.5 132.313L733.983 72.796Z" fill="#F43142"/>
<path d="M257.44 76.76V91.24H282.8L283.6 92.04V100.12L282.8 101H247.12L246.32 100.12V45.24L247.12 44.44H282.8L283.6 45.24V53.32L282.8 54.12H257.44V67H277.12L282 71.88L277.12 76.76H257.44ZM298.601 102.68L293.081 96.84V45.32L293.881 44.44H303.321L304.121 45.32V96.84L298.601 102.68ZM323.946 54.12H314.506L313.706 53.32V45.24L314.506 44.44H323.946L324.746 45.24V53.32L323.946 54.12ZM313.706 61.4L314.506 60.6H323.946L324.746 61.4V100.12L323.946 101H314.506L313.706 100.12V61.4ZM350.171 70.28V88.92C350.171 90.52 350.945 91.32 352.491 91.32H357.371L362.171 96.12L357.371 101H352.491C350.731 101 349.025 100.787 347.371 100.36C345.771 99.9333 344.331 99.24 343.051 98.28C341.825 97.32 340.838 96.0933 340.091 94.6C339.398 93.0533 339.051 91.16 339.051 88.92V70.28H331.931L331.131 69.48V61.4L331.931 60.6H339.051V52.52L339.851 51.72H349.371L350.171 52.52V60.6H359.451L360.251 61.4V69.48L359.451 70.28H350.171ZM403.994 83.96L403.194 84.84H377.834C377.834 85.4267 377.94 86.1467 378.154 87C378.42 87.8 378.847 88.5733 379.434 89.32C380.02 90.0667 380.82 90.7067 381.834 91.24C382.847 91.7733 384.154 92.04 385.754 92.04C386.98 92.04 388.1 91.8533 389.114 91.48C390.127 91.0533 390.847 90.44 391.274 89.64L392.074 88.84H401.594L402.394 89.64C402.18 90.8667 401.754 92.2 401.114 93.64C400.474 95.0267 399.514 96.3333 398.234 97.56C396.954 98.7867 395.274 99.8 393.194 100.6C391.167 101.4 388.687 101.8 385.754 101.8C382.394 101.8 379.46 101.24 376.954 100.12C374.5 98.9467 372.447 97.4 370.794 95.48C369.14 93.56 367.914 91.3467 367.114 88.84C366.314 86.28 365.914 83.5867 365.914 80.76C365.914 77.9333 366.314 75.2667 367.114 72.76C367.914 70.2 369.114 67.96 370.714 66.04C372.314 64.12 374.287 62.6 376.634 61.48C379.034 60.3067 381.807 59.72 384.954 59.72C388.1 59.72 390.847 60.3067 393.194 61.48C395.594 62.6 397.594 64.12 399.194 66.04C400.794 67.96 401.994 70.2 402.794 72.76C403.594 75.2667 403.994 77.9333 403.994 80.76V83.96ZM392.074 76.76C392.074 75.5333 391.86 74.4667 391.434 73.56C391.06 72.6533 390.527 71.9067 389.834 71.32C389.194 70.68 388.447 70.2 387.594 69.88C386.74 69.56 385.86 69.4 384.954 69.4C384.047 69.4 383.167 69.56 382.314 69.88C381.46 70.2 380.687 70.68 379.994 71.32C379.354 71.9067 378.82 72.6533 378.394 73.56C378.02 74.4667 377.834 75.5333 377.834 76.76H392.074ZM469.109 44.44H475.349V51.72L458.309 69.72L476.149 92.04V101H469.829L468.229 100.12L450.469 77.88L444.549 83.96V100.12L443.749 101H434.309L433.509 100.12V45.24L434.309 44.44H443.749L444.549 45.24V69.16L467.509 45.24L469.109 44.44ZM492.774 54.12H483.334L482.534 53.32V45.24L483.334 44.44H492.774L493.574 45.24V53.32L492.774 54.12ZM482.534 61.4L483.334 60.6H492.774L493.574 61.4V100.12L492.774 101H483.334L482.534 100.12V61.4ZM534.759 102.68L529.239 96.84V76.76C529.239 74.4133 528.546 72.6267 527.159 71.4C525.773 70.1733 524.226 69.56 522.519 69.56C521.506 69.56 520.493 69.7733 519.479 70.2C518.519 70.6267 517.639 71.2667 516.839 72.12C516.039 72.9733 515.399 74.0667 514.919 75.4C514.439 76.68 514.199 78.2267 514.199 80.04V100.2L513.399 101H503.879L503.079 100.2V61.48L503.879 60.6H512.599L513.399 61.48L514.359 64.68C514.893 64.0933 515.506 63.5067 516.199 62.92C516.893 62.3333 517.666 61.8267 518.519 61.4C519.426 60.92 520.439 60.5467 521.559 60.28C522.679 59.96 523.933 59.8 525.319 59.8C530.066 59.8 533.746 61.2933 536.359 64.28C539.026 67.2133 540.359 71.1067 540.359 75.96V96.84L534.759 102.68ZM566.457 107.24C569.23 107.24 571.364 106.467 572.857 104.92C574.404 103.373 575.177 100.707 575.177 96.92C574.964 97.1333 574.59 97.5067 574.057 98.04C573.577 98.5733 572.884 99.1333 571.977 99.72C571.07 100.253 569.95 100.733 568.617 101.16C567.337 101.587 565.817 101.8 564.057 101.8C561.657 101.8 559.39 101.32 557.257 100.36C555.177 99.3467 553.337 97.9333 551.737 96.12C550.19 94.3067 548.937 92.12 547.977 89.56C547.07 86.9467 546.617 84.0133 546.617 80.76C546.617 77.5067 547.07 74.6 547.977 72.04C548.937 69.4267 550.19 67.2133 551.737 65.4C553.337 63.5867 555.177 62.2 557.257 61.24C559.39 60.2267 561.657 59.72 564.057 59.72C565.817 59.72 567.337 59.9333 568.617 60.36C569.95 60.7867 571.044 61.2933 571.897 61.88C572.804 62.4133 573.497 62.9467 573.977 63.48C574.457 63.96 574.777 64.28 574.937 64.44L575.977 61.4L576.777 60.6H585.497L586.217 61.4V96.12C586.217 99.7467 585.71 102.867 584.697 105.48C583.684 108.147 582.27 110.333 580.457 112.04C578.697 113.747 576.617 115 574.217 115.8C571.817 116.6 569.23 117 566.457 117H560.057L555.177 112.12L560.057 107.24H566.457ZM575.177 80.76C575.177 78.8933 574.91 77.2667 574.377 75.88C573.897 74.44 573.23 73.2667 572.377 72.36C571.577 71.4 570.644 70.68 569.577 70.2C568.564 69.72 567.524 69.48 566.457 69.48C565.39 69.48 564.324 69.72 563.257 70.2C562.244 70.68 561.31 71.4 560.457 72.36C559.657 73.2667 558.99 74.44 558.457 75.88C557.977 77.2667 557.737 78.8933 557.737 80.76C557.737 82.6267 557.977 84.28 558.457 85.72C558.99 87.1067 559.657 88.28 560.457 89.24C561.31 90.1467 562.244 90.84 563.257 91.32C564.324 91.8 565.39 92.04 566.457 92.04C567.524 92.04 568.564 91.8 569.577 91.32C570.644 90.84 571.577 90.1467 572.377 89.24C573.23 88.28 573.897 87.1067 574.377 85.72C574.91 84.28 575.177 82.6267 575.177 80.76ZM270.88 147C272.96 147 274.533 146.333 275.6 145C276.72 143.613 277.28 142.067 277.28 140.36C277.28 138.813 276.747 137.4 275.68 136.12C274.667 134.787 273.067 134.12 270.88 134.12H257.36V147H270.88ZM271.12 171.24C272.4 171.24 273.52 171.053 274.48 170.68C275.44 170.253 276.24 169.693 276.88 169C277.52 168.307 278 167.533 278.32 166.68C278.64 165.773 278.8 164.867 278.8 163.96C278.8 163.053 278.64 162.173 278.32 161.32C278 160.467 277.52 159.693 276.88 159C276.24 158.307 275.44 157.773 274.48 157.4C273.52 156.973 272.4 156.76 271.12 156.76H257.36V180.12L256.56 181H247.12L246.32 180.12V125.24L247.12 124.44H272.4C274.853 124.44 277.04 124.867 278.96 125.72C280.933 126.573 282.587 127.693 283.92 129.08C285.307 130.413 286.373 131.987 287.12 133.8C287.867 135.56 288.24 137.347 288.24 139.16C288.24 141.56 287.573 143.88 286.24 146.12C284.96 148.307 282.853 150.093 279.92 151.48C283.28 152.653 285.76 154.547 287.36 157.16C289.013 159.773 289.84 162.573 289.84 165.56C289.84 167.48 289.493 169.373 288.8 171.24C288.16 173.053 287.173 174.707 285.84 176.2C284.507 177.64 282.853 178.813 280.88 179.72C278.907 180.573 276.613 181 274 181H263.84L258.96 176.12L263.84 171.24H271.12ZM323.927 160.76C323.927 158.893 323.66 157.267 323.127 155.88C322.647 154.44 321.98 153.267 321.127 152.36C320.327 151.4 319.394 150.68 318.327 150.2C317.314 149.72 316.274 149.48 315.207 149.48C314.14 149.48 313.074 149.72 312.007 150.2C310.994 150.68 310.06 151.4 309.207 152.36C308.407 153.267 307.74 154.44 307.207 155.88C306.727 157.267 306.487 158.893 306.487 160.76C306.487 162.627 306.727 164.28 307.207 165.72C307.74 167.107 308.407 168.28 309.207 169.24C310.06 170.147 310.994 170.84 312.007 171.32C313.074 171.8 314.14 172.04 315.207 172.04C316.274 172.04 317.314 171.8 318.327 171.32C319.394 170.84 320.327 170.147 321.127 169.24C321.98 168.28 322.647 167.107 323.127 165.72C323.66 164.28 323.927 162.627 323.927 160.76ZM295.367 160.76C295.367 157.24 295.927 154.173 297.047 151.56C298.22 148.947 299.714 146.76 301.527 145C303.394 143.24 305.5 141.933 307.847 141.08C310.247 140.173 312.7 139.72 315.207 139.72C317.66 139.72 320.06 140.173 322.407 141.08C324.807 141.933 326.94 143.24 328.807 145C330.674 146.76 332.167 148.947 333.287 151.56C334.407 154.173 334.967 157.24 334.967 160.76C334.967 164.28 334.407 167.347 333.287 169.96C332.167 172.573 330.674 174.76 328.807 176.52C326.94 178.28 324.807 179.613 322.407 180.52C320.06 181.373 317.66 181.8 315.207 181.8C312.7 181.8 310.247 181.373 307.847 180.52C305.5 179.613 303.394 178.28 301.527 176.52C299.714 174.76 298.22 172.573 297.047 169.96C295.927 167.347 295.367 164.28 295.367 160.76ZM373.824 181H365.104L364.304 180.12L363.264 177.88C363.104 178.04 362.784 178.333 362.304 178.76C361.877 179.187 361.264 179.64 360.464 180.12C359.717 180.547 358.784 180.92 357.664 181.24C356.597 181.613 355.37 181.8 353.984 181.8C349.61 181.8 346.144 180.653 343.584 178.36C341.024 176.067 339.744 172.893 339.744 168.84C339.744 165.8 340.357 163.373 341.584 161.56C342.81 159.747 344.304 158.36 346.064 157.4C347.877 156.44 349.77 155.827 351.744 155.56C353.77 155.24 355.584 155.08 357.184 155.08C358.784 155.08 360.117 155.213 361.184 155.48C362.304 155.747 363.077 155.933 363.504 156.04V152.68C363.504 151.613 362.917 150.813 361.744 150.28C360.624 149.693 359.344 149.4 357.904 149.4C356.677 149.4 355.557 149.613 354.544 150.04C353.53 150.413 352.837 151.027 352.464 151.88L351.664 152.68H342.144L341.344 151.88C341.557 149.96 342.17 148.253 343.184 146.76C344.25 145.213 345.557 143.933 347.104 142.92C348.65 141.853 350.357 141.053 352.224 140.52C354.144 139.987 356.09 139.72 358.064 139.72C360.144 139.72 362.17 140.04 364.144 140.68C366.117 141.267 367.877 142.2 369.424 143.48C371.024 144.76 372.277 146.36 373.184 148.28C374.144 150.2 374.624 152.467 374.624 155.08V180.12L373.824 181ZM363.504 164.28C363.077 164.12 362.437 163.907 361.584 163.64C360.73 163.32 359.53 163.16 357.984 163.16C353.237 163.16 350.864 164.787 350.864 168.04C350.864 169.267 351.29 170.253 352.144 171C352.997 171.693 354.41 172.04 356.384 172.04C358.41 172.04 360.09 171.507 361.424 170.44C362.81 169.373 363.504 168.04 363.504 166.44V164.28ZM410.996 145.4L406.196 150.28H403.076C399.876 150.28 397.609 151.107 396.276 152.76C394.996 154.413 394.356 157.08 394.356 160.76V180.12L393.556 181H384.116L383.316 180.12V141.4L384.116 140.6H392.836L393.556 141.4L394.356 144.6C395.529 143.053 396.916 142.013 398.516 141.48C400.116 140.893 401.902 140.6 403.876 140.6H406.196L410.996 145.4ZM413.336 160.84C413.336 157.587 413.789 154.68 414.696 152.12C415.656 149.507 416.909 147.293 418.456 145.48C420.056 143.667 421.896 142.28 423.976 141.32C426.109 140.307 428.376 139.8 430.776 139.8C432.536 139.8 434.056 140.013 435.336 140.44C436.669 140.867 437.789 141.373 438.696 141.96C439.602 142.493 440.296 143.027 440.776 143.56C441.309 144.093 441.682 144.467 441.896 144.68V125.32L442.696 124.44H452.216L452.936 125.32V180.2L452.216 181H443.496L442.696 180.2L441.736 177C441.576 177.213 441.229 177.587 440.696 178.12C440.216 178.653 439.522 179.213 438.616 179.8C437.762 180.333 436.669 180.813 435.336 181.24C434.056 181.667 432.536 181.88 430.776 181.88C428.376 181.88 426.109 181.4 423.976 180.44C421.896 179.427 420.056 178.013 418.456 176.2C416.909 174.387 415.656 172.2 414.696 169.64C413.789 167.027 413.336 164.093 413.336 160.84ZM441.896 160.84C441.896 158.973 441.629 157.347 441.096 155.96C440.616 154.52 439.949 153.347 439.096 152.44C438.296 151.48 437.362 150.76 436.296 150.28C435.282 149.8 434.242 149.56 433.176 149.56C432.109 149.56 431.042 149.8 429.976 150.28C428.962 150.76 428.029 151.48 427.176 152.44C426.376 153.347 425.709 154.52 425.176 155.96C424.696 157.347 424.456 158.973 424.456 160.84C424.456 162.707 424.696 164.36 425.176 165.8C425.709 167.187 426.376 168.36 427.176 169.32C428.029 170.227 428.962 170.92 429.976 171.4C431.042 171.88 432.109 172.12 433.176 172.12C434.242 172.12 435.282 171.88 436.296 171.4C437.362 170.92 438.296 170.227 439.096 169.32C439.949 168.36 440.616 167.187 441.096 165.8C441.629 164.36 441.896 162.707 441.896 160.84Z" fill="black"/>
</svg>
